<?xml version="1.0" encoding="utf-8"?>
<!-- Generator: Adobe Illustrator 24.2.0, SVG Export Plug-In . SVG Version: 6.00 Build 0)  -->
<svg version="1.1" id="Layer_1" xmlns="http://www.w3.org/2000/svg" xmlns:xlink="http://www.w3.org/1999/xlink" x="0px" y="0px"
	 viewBox="0 0 137 397" style="enable-background:new 0 0 137 397;" xml:space="preserve">
<style type="text/css">
	.st0{fill:#939CB2;}
	.st1{fill:none;stroke:#E46399;stroke-width:2.16;stroke-dasharray:2.16,5.4;}
	.st2{fill:#565656;stroke:#565656;stroke-width:1.08;}
	.st3{fill:#FFFFFF;fill-opacity:0.8;}
</style>
<path class="st0" d="M112.3,329.2c-5.1-10.2-12-13-17.5-18.3c0,0,0,0,0-0.2c-0.2-0.2-0.4-0.6-0.6-0.8c-0.2-0.2-0.4-0.8-0.8-1
	c0,0,0,0-0.2-0.2c-0.2-0.2-0.4-0.4-0.8-0.8l0.4,0.4c-4.1-7.5-5.9-26-7.7-59.2c-2.2-37.6-3.9-46.4-10.6-65.9
	c-6.7-20.1-6.5-26-6.5-40.3c2-24-2-40.9-1.4-48.8c0.4-8.3,4.1-14.8-2-40.1c-8.3-30.5-21.8-34.4-34.4-39.7c-1.6-0.8-3.5-1.6-5.5-2.4
	l1.6,128.5c0,0,3.9,16.7,7.3,42.9c0,0,0.8,5.1,0.8,5.3c5.3,39.9,9.4,64.1,17.9,86.4c5.1,12.8,11.8,29.3,12.4,35.8l0.8-0.8
	c0.2-0.2,0.8-0.4,1-0.8c-0.2,0.2-0.4,0.4-0.8,0.8c-0.4,0.8-0.8,1.4-0.8,2.2v0.4c-0.2,0.2-0.4,0.4-0.4,0.8c0,0.4-0.2,0.2-0.2,0.2
	c-3.1,8.3-1.2,21.4,0.2,31.3c0,0.2,0,0.4,0.2,0.4c0,0.2,0.2,0.4,0.4,0.8c0,0.2,0.2,0.2,0.4,0.4c0.2,0.2,0.2,0.6,0.4,0.6
	c0.2,0.4,0.2,0.8,0.2,0.8s-0.2,0-0.8-0.2c-0.2-0.2-0.4-0.2-0.8-0.4c0,0.4,0.2,1,0.2,1.4c3.1,24.6,5.9,36.4,9.4,35.6
	c3.5-0.8,1.2-11.8,0.8-18.7c-0.4-6.7-2-15.5-0.8-15.7c1.2-0.4,1.4,4.5,3.3,16.1c1.8,11.6,6.1,22.4,8.5,22c2.2-0.4,3.3-2.8,2-10.2
	c-1.2-7.3-6.7-30.3-5.3-30.3c1.2-0.2,6.1,16.5,8.1,28.1c2,11.6,4.5,16.5,7.5,15.5c3.1-1,2.8-3.9,0.4-14.4c-2-10.6-7.5-31.3-5.3-31.7
	c2-0.4,6.7,26.2,8.5,32.7c1.8,6.7,6.5,11.8,7.3,5.1c0.8-6.7-5.3-35-6.1-41.3c-1-6.1,3.5-3.5,7.3,1.8c3.5,5.3,10.8,7.7,12.6,5.3
	C125.8,344.8,117.4,339.3,112.3,329.2z"/>
<rect x="2" y="178.2" class="st1" width="122" height="113.4"/>
<path class="st2" d="M134.3,168.3L134.3,168.3L134.3,168.3c0,0.1,0,0.1,0,0.2v4.3c0,0.1-0.1,0.3-0.2,0.4c-0.1,0.1-0.2,0.2-0.4,0.2
	c-0.1,0-0.3-0.1-0.4-0.2c-0.1-0.1-0.2-0.2-0.2-0.4v-1.7v-1.3l-0.9,0.9l-7.1,7.1l-0.4,0.4l0.4,0.4l2.3,2.3l0,0
	c0.1,0.1,0.1,0.1,0.1,0.2l0.5-0.2l-0.5,0.2c0,0.1,0,0.1,0,0.2c0,0.1,0,0.1,0,0.2l0.5,0.2l-0.5-0.2c0,0.1-0.1,0.1-0.1,0.2l0,0
	c-0.1,0.1-0.1,0.1-0.2,0.1c-0.1,0-0.1,0-0.2,0l0,0h0c-0.1,0-0.1,0-0.2,0c-0.1,0-0.1-0.1-0.2-0.1c0,0,0,0,0,0l-2.3-2.3L124,179
	l-0.4,0.4l-7.1,7.1l-0.9,0.9h1.3h1.7c0.1,0,0.3,0.1,0.4,0.2c0.1,0.1,0.2,0.2,0.2,0.4s-0.1,0.3-0.2,0.4c-0.1,0.1-0.2,0.2-0.4,0.2
	h-4.3c-0.1,0-0.1,0-0.2,0l0,0c-0.1-0.1-0.2-0.2-0.3-0.3l0,0l0,0c0-0.1,0-0.1,0-0.2v-4.3c0-0.1,0.1-0.3,0.2-0.4l-0.4-0.4l0.4,0.4
	c0.1-0.1,0.2-0.2,0.4-0.2s0.3,0.1,0.4,0.2l0.4-0.4l-0.4,0.4c0.1,0.1,0.2,0.2,0.2,0.4v1.7v1.3l0.9-0.9l7.1-7.1l0.4-0.4l-0.4-0.4
	l-2.3-2.3c0,0,0,0,0,0c-0.1-0.1-0.2-0.2-0.2-0.4c0-0.1,0.1-0.3,0.2-0.4c0.1-0.1,0.2-0.2,0.4-0.2c0.1,0,0.3,0.1,0.4,0.2c0,0,0,0,0,0
	l2.3,2.3l0.4,0.4l0.4-0.4l7.1-7.1l0.9-0.9h-1.3h-1.7c-0.1,0-0.3-0.1-0.4-0.2l-0.4,0.4l0.4-0.4c-0.1-0.1-0.2-0.2-0.2-0.4
	c0-0.1,0.1-0.3,0.2-0.4l-0.4-0.4l0.4,0.4c0.1-0.1,0.2-0.2,0.4-0.2h4.3c0.1,0,0.1,0,0.2,0l0,0l0,0C134.1,168,134.2,168.1,134.3,168.3
	z"/>
<rect x="8.5" y="0" class="st3" width="84.2" height="177.1"/>
<rect x="8.5" y="292.7" class="st3" width="119.9" height="103.7"/>
</svg>
