<svg width="24" height="24" viewBox="0 0 24 24" fill="none" xmlns="http://www.w3.org/2000/svg">
<path d="M20.0495 16.4741C18.8458 15.0007 17.9959 14.2507 17.9959 10.1888C17.9959 6.46915 16.0964 5.14394 14.5331 4.50033C14.3254 4.41501 14.13 4.21907 14.0667 4.00578C13.7924 3.07246 13.0237 2.25024 12.0018 2.25024C10.9798 2.25024 10.2106 3.07293 9.93918 4.00672C9.8759 4.22235 9.68042 4.41501 9.47276 4.50033C7.90754 5.14488 6.00997 6.4654 6.00997 10.1888C6.00763 14.2507 5.15775 15.0007 3.95396 16.4741C3.45519 17.0844 3.89208 18.0008 4.76446 18.0008H19.2437C20.1114 18.0008 20.5455 17.0816 20.0495 16.4741Z" stroke="#2457DB" stroke-width="1.50739" stroke-linecap="round" stroke-linejoin="round"/>
<path d="M15.001 18.0002V18.7503C15.001 19.546 14.6849 20.309 14.1222 20.8717C13.5596 21.4343 12.7965 21.7504 12.0008 21.7504C11.2052 21.7504 10.4421 21.4343 9.87944 20.8717C9.31681 20.309 9.00073 19.546 9.00073 18.7503V18.0002" stroke="#2457DB" stroke-width="1.50739" stroke-linecap="round" stroke-linejoin="round"/>
</svg>
