<?xml version="1.0" encoding="utf-8"?>
<!-- Generator: Adobe Illustrator 24.2.0, SVG Export Plug-In . SVG Version: 6.00 Build 0)  -->
<svg version="1.1" id="Layer_1" xmlns="http://www.w3.org/2000/svg" xmlns:xlink="http://www.w3.org/1999/xlink" x="0px" y="0px"
	 viewBox="0 0 171 446" style="enable-background:new 0 0 171 446;" xml:space="preserve">
<style type="text/css">
	.st0{fill:#939CB2;}
	.st1{fill:#E46399;}
</style>
<path class="st0" d="M165,231.8c-2.5-5-5.9-6.4-8.6-9c0,0,0,0,0-0.1c-0.1-0.1-0.2-0.3-0.3-0.4c-0.1-0.1-0.2-0.4-0.4-0.5
	c0,0,0,0-0.1-0.1c-0.1-0.1-0.2-0.2-0.4-0.4c0.1,0.1,0.2,0.2,0.2,0.2c-2-3.7-2.9-12.8-3.8-29.1c-1.1-18.5-1.9-22.8-5.2-32.4
	c-3.3-9.9-3.2-12.8-3.2-19.8c1-11.8-1-20.1-0.7-24c0.2-4.1,2-7.3-1-19.7c-4.1-15-10.7-16.9-16.9-19.5c-6.2-2.7-15.5-6.8-20.9-9.4
	c-5.6-2.6-5.6-3-5.6-5.8c0-2.9,0.4-7.7,0.4-7.7h-0.1c1.5-2.2,2.7-6.2,3.2-10.8c0,0,1.4,1,2.7-2c2.7-6.1,3.5-8.1,3.2-10.4
	c-0.2-2.2-2.2-2.2-2.2-2.2S112.6,3.3,87.2,1c-11.4-0.5-25.3,7.5-21,27.7c0,0-3.1,0.1-2.1,4.3c0.9,4.2,2.6,6.7,3.6,8.8
	c1,2.1,1.9,2.2,2.5,1.5c0,0,0.4,7.2,3.2,10.8c0.1,0.2,0.4,0.4,0.5,0.6c2.7,2.9,5.5,4.5,7.4,5.4c-0.6-0.2-1.2-0.4-1.8-0.6
	c-0.2-0.1-0.3-0.2-0.5-0.2c-0.9-0.5-1.8-1.1-2.8-1.9c-0.3-0.3-0.6-0.5-0.8-0.7c-0.5-0.5-0.7-0.9-0.7-0.9s0.2,0.3,0.5,0.7
	c-0.6-0.5-1.1-1-1.7-1.6c-0.1-0.2-0.4-0.4-0.5-0.6c0,0.2,0.5,5,0.5,7.7c0,2.9,0,3.2-5.6,5.8c-5.6,2.6-14.8,6.7-20.9,9.4
	c-6.2,2.7-12.8,4.5-16.9,19.5c-3,12.5-1.2,15.6-1,19.7c0.2,4.1-1.7,12.3-0.7,24c0,7.1,0.1,9.9-3.2,19.8c-3.2,9.5-4,13.9-5.2,32.4
	c-1,15.9-1.7,24.8-3.6,28.8c0.1-0.1,0.4-0.4,0.5-0.5c0.1-0.1,0.4-0.2,0.5-0.4c0.2-0.2,0.5-0.4,0.5-0.4s0,0.1,0,0.2l-0.1,0.1
	c-0.1,0.1-0.2,0.2-0.5,0.4c-0.1,0.1-0.4,0.2-0.5,0.5c-0.1,0.1-0.4,0.4-0.5,0.5c-0.1,0.1-0.2,0.4-0.4,0.5c-0.2,0.2-0.3,0.3-0.3,0.4
	c-0.1,0-0.1,0.1-0.2,0.1c0,0.1-0.1,0.1-0.1,0.2c-2.6,2.6-6.2,4.1-8.6,9c-2.5,5-6.6,7.7-5.6,9.3c0.9,1.4,4.5,0.1,6.2-2.6
	c1.7-2.6,4.1-3.8,3.6-0.9c-0.5,3-3.3,16.9-3,20.3c0.4,3.3,2.7,0.9,3.6-2.5c0.9-3.3,3.2-16.5,4.2-16.1c1,0.2-1.6,10.5-2.6,15.6
	c-1,5.2-1.2,6.6,0.2,7.1c1.5,0.5,2.6-1.7,3.7-7.6c1-5.8,3.3-13.9,4-13.8c0.6,0.1-2,11.3-2.6,14.9s-0.2,4.6,1,5
	c1.1,0.2,3.3-5.1,4.2-10.8c0.9-5.7,1-8.1,1.6-7.9s-0.1,4.3-0.4,7.7c-0.2,3.3-1.4,8.8,0.4,9.2c1.7,0.4,3-5.3,4.6-17.5
	c0-0.3,0.1-0.6,0.1-1c0,0,0,0,0-0.1c0-0.1,0.1-0.2,0.1-0.4c0-0.1,0-0.2,0.1-0.4c0-0.1,0-0.2,0-0.3c0.6-4.8,1.5-11.1,0.1-15.1
	c0-0.1,0-0.2,0-0.4s-0.1-0.5-0.2-0.9c0-0.1-0.1-0.2-0.1-0.2c0.2-3,3.6-11.2,6.1-17.6c4.2-10.8,6.2-22.6,8.7-41.8
	c0-0.2-0.1-0.7-0.2-1.5c-0.1-1-0.2-2.2-0.2-3.6c0-1.4,0-2.6,0-3.6s0.1-1.6,0.1-1.6s0.1,0.3,0.1,0.9c0,0.2,0,0.5,0,0.7
	c0,1-0.1,2.2,0,3.6c0,1.4,0.1,2.6,0.2,3.6c0.1,0.7,0.1,1.2,0.2,1.5c0,0.1,0,0.1,0,0.1s0-0.5,0.1-1.1c0-0.1,0-0.2,0-0.5s0-0.6,0-1
	c1.7-13.3,3.7-21.8,3.7-21.8s5.2,12.5,5.1,22.1c-0.1,8.1-0.7,7.7-1.7,14.3c-1,6.7-1.6,10-2.7,20.9c-2.2,12.3-4.8,21.4-5.7,31.4
	c-1,10,0.2,29.6,4.7,50.8c4.6,21.2,7.2,25.7,7.2,37.8c-0.6,10.2-5.1,27.8-2.1,46.5c3,18.7,6.2,24.2,8.2,36.1
	c1.5,9.7,0.7,10.8,0.5,12.3c-0.2,1.5-0.6,2.2,0.6,5.7c0,3.3-4.7,9.9-7.3,13.6c-1.7,2.9-1.9,2.9-2.9,3.6c-1.9,1.4-2.5,3.3-0.7,4.1
	c-0.6,1.6,0.1,3.8,2,2.9c-0.5,1.6,1.6,2.7,3.7,2c0.5,1.4,2.4,2.2,3.7,0.2c1.4-2,1.6-4.1,2.9-3.7c1.2,0.4,0.2,2.1-0.4,3.3
	c-0.6,1.2,0.2,3.3,2.9,3.1c2.6-0.2,3.8-2.1,4-3.6c0.1-1.5,0.9-2.5,2.2-4.1c1.4-1.6,1.7-2.7,1.9-5.5c0.1-2.7,1.2-3.2,2.2-4.7
	c1-1.4,1.2-4.2,0.4-8.8c-0.8-4.6-0.5-4.8,0-6.6c0.5-1.7,0-2.9-0.7-6.2c-0.7-3.3-0.6-15.5,0.6-22.4c1.2-6.9,4-16.2,3-30.5
	s-2.4-23.8-1.2-26.8c1.1-3,1.4-11.7,1.9-22.2c1-19.8,1.7-55.4,4.8-55.4c3.1,0,5,53.1,5.1,55.4c0.4,10.7,0.7,19.2,1.9,22.2
	c1.1,3-0.2,12.5-1.2,26.8s1.7,23.6,3,30.5c1.2,6.9,1.4,19.1,0.6,22.4c-0.7,3.3-1.2,4.6-0.7,6.2c0.5,1.7,0.9,1.9,0,6.6
	c-0.9,4.6-0.6,7.3,0.4,8.8c1,1.4,2.1,2,2.2,4.7c0.1,2.7,0.6,3.8,1.9,5.5c1.4,1.6,2.1,2.6,2.2,4.1c0.1,1.5,1.4,3.3,4,3.6
	c2.6,0.2,3.6-1.9,2.9-3.1c-0.6-1.2-1.6-3.1-0.4-3.3c1.2-0.4,1.4,1.7,2.9,3.7c1.4,2,3.2,1.1,3.7-0.2c2.2,0.7,4.2-0.4,3.7-2
	c1.9,0.9,2.6-1.4,2-2.9c1.7-0.7,1.1-2.6-0.7-4.1c-1-0.7-1.2-0.7-2.9-3.6c-2.6-3.7-7.3-10.3-7.3-13.6c1.2-3.6,1-4.3,0.6-5.7
	c-0.2-1.5-1-2.6,0.5-12.3c1.9-11.9,5.1-17.4,8.1-36.1c3-18.7-1.5-36.3-2.1-46.5c0-12,2.6-16.6,7.2-37.8c4.6-21.2,5.7-40.8,4.7-50.8
	c-1-10-3.6-19.1-5.7-31.4c-1.1-10.9-1.7-14.3-2.7-20.9c-1-6.7-1.6-6.2-1.7-14.3c-0.1-9.7,5.1-22.1,5.1-22.1s1.9,8.2,3.6,21.1
	c0-0.6,0-1.2,0-1.7c0-1.4,0.1-2.6,0.2-3.6s0.2-1.6,0.2-1.6s0.1,0.6,0.1,1.5c-0.1,1-0.2,2.2-0.2,3.6c0,0.6,0,1.2,0,1.7
	c0,0.6,0,1.2,0.1,1.9v0.1c0,0.2-0.1,0.6-0.1,0.7c2.6,19.6,4.6,31.5,8.8,42.5c2.5,6.3,5.8,14.4,6.1,17.6c0.1-0.1,0.2-0.2,0.4-0.4
	c0.1-0.1,0.4-0.2,0.5-0.4c-0.1,0.1-0.2,0.2-0.4,0.4c-0.2,0.4-0.4,0.7-0.4,1.1c0,0.1,0,0.2,0,0.2c-0.1,0.1-0.2,0.2-0.2,0.4
	s-0.1,0.1-0.1,0.1c-1.5,4.1-0.6,10.5,0.1,15.4c0,0.1,0,0.2,0.1,0.2c0,0.1,0.1,0.2,0.2,0.4c0,0.1,0.1,0.1,0.2,0.2
	c0.1,0.1,0.1,0.3,0.2,0.3c0.1,0.2,0.1,0.4,0.1,0.4s-0.1,0-0.4-0.1c-0.1-0.1-0.2-0.1-0.4-0.2c0,0.2,0.1,0.5,0.1,0.7
	c1.5,12.1,2.9,17.9,4.6,17.5s0.6-5.8,0.4-9.2c-0.2-3.3-1-7.6-0.4-7.7c0.6-0.2,0.7,2.2,1.6,7.9c0.9,5.7,3,11,4.2,10.8
	c1.1-0.2,1.6-1.4,1-5c-0.6-3.6-3.3-14.9-2.6-14.9c0.6-0.1,3,8.1,4,13.8c1,5.7,2.2,8.1,3.7,7.6s1.4-1.9,0.2-7.1
	c-1-5.2-3.7-15.4-2.6-15.6c1-0.2,3.3,12.9,4.2,16.1c0.9,3.3,3.2,5.8,3.6,2.5c0.4-3.3-2.6-17.2-3-20.3c-0.5-3,1.7-1.7,3.6,0.9
	c1.7,2.6,5.3,3.8,6.2,2.6C171.6,239.5,167.5,236.8,165,231.8z"/>
<path class="st1" d="M87.4,221.9L44,223.1c-0.2,1.5-0.4,3-0.5,4.5c-1,10,0.2,29.6,4.7,50.8c4.6,21.2,7.2,25.7,7.2,37.8
	c-0.6,10.2-5.1,27.8-2.1,46.5c3,18.7,6.2,24.2,8.2,36.1c1.5,9.7,0.7,10.8,0.5,12.3s-0.6,2.2,0.6,5.7c0,3.3-4.7,9.9-7.3,13.6
	c-1.7,2.9-1.9,2.9-2.9,3.6c-1.9,1.4-2.5,3.3-0.7,4.1c-0.6,1.6,0.1,3.8,2,2.9c-0.5,1.6,1.6,2.7,3.7,2c0.5,1.4,2.4,2.2,3.7,0.2
	c1.4-2,1.6-4.1,2.9-3.7c1.2,0.4,0.2,2.1-0.4,3.3c-0.6,1.2,0.2,3.3,2.9,3.1c2.6-0.2,3.8-2.1,4-3.6c0.1-1.5,0.9-2.5,2.2-4.1
	c1.4-1.6,1.7-2.7,1.9-5.5c0.1-2.7,1.2-3.2,2.2-4.7c1-1.4,1.2-4.2,0.4-8.8c-0.8-4.6-0.5-4.8,0-6.6c0.5-1.7,0-2.9-0.7-6.2
	c-0.7-3.3-0.6-15.5,0.6-22.4c1.2-6.9,4-16.2,3-30.5s-2.4-23.8-1.2-26.8c1.1-3,1.4-11.7,1.9-22.2c1-19.5,1.7-54.3,4.7-55.4
	L87.4,221.9z"/>
<path class="st1" d="M83.9,221.9l43.4,1.3c0.2,1.5,0.4,3,0.5,4.5c1,10-0.2,29.6-4.7,50.8c-4.6,21.2-7.2,25.7-7.2,37.8
	c0.6,10.2,5.1,27.8,2.1,46.5c-3,18.7-6.2,24.2-8.2,36.1c-1.5,9.7-0.7,10.8-0.5,12.3s0.6,2.2-0.6,5.7c0,3.3,4.7,9.9,7.3,13.6
	c1.7,2.9,1.9,2.9,2.9,3.6c1.9,1.4,2.5,3.3,0.7,4.1c0.6,1.6-0.1,3.8-2,2.9c0.5,1.6-1.6,2.7-3.7,2c-0.5,1.4-2.4,2.2-3.7,0.2
	c-1.4-2-1.6-4.1-2.9-3.7c-1.2,0.4-0.2,2.1,0.4,3.3c0.6,1.2-0.2,3.3-2.9,3.1c-2.6-0.2-3.8-2.1-4-3.6c-0.1-1.5-0.9-2.5-2.2-4.1
	c-1.4-1.6-1.7-2.7-1.9-5.5c-0.1-2.7-1.2-3.2-2.2-4.7c-1-1.4-1.2-4.2-0.4-8.8c0.8-4.6,0.5-4.8,0-6.6c-0.5-1.7,0-2.9,0.7-6.2
	c0.7-3.3,0.6-15.5-0.6-22.4c-1.2-6.9-4-16.2-3-30.5s2.4-23.8,1.2-26.8c-1.1-3-1.4-11.7-1.9-22.2c-1-19.5-1.7-54.3-4.7-55.4l-0.1-1.4
	L83.9,221.9z"/>
<path class="st1" d="M119.5,175.4c-1-6.7-1.6-6.2-1.7-14.3c-0.1-8.9,4.4-19.8,5-21.5l0-5.3H49.1l-0.1,5.2c1.4,3.7,4.7,14.1,4.6,21.6
	c-0.1,8.1-0.7,7.7-1.7,14.3c-1,6.7-1.6,10-2.7,20.9c-1.9,10.4-4,18.6-5.2,26.9h83.3c-1.2-8.3-3.4-16.5-5.1-26.9
	C121.1,185.4,120.5,182,119.5,175.4z"/>
<path class="st1" d="M28,134.3h115.4c0.1-8.7-1.2-14.9-1-18.1c0.2-4.1,2-7.3-1-19.7c-4.1-15-10.7-16.9-16.9-19.5
	c-6.2-2.7-15.5-6.8-20.9-9.4c-3.7-1.7-4.9-2.5-5.4-3.6h-25c-0.3,1.3-1.5,2-5.5,3.8c-5.6,2.6-14.8,6.7-20.9,9.4
	c-6.2,2.7-12.8,4.5-16.9,19.5c-3,12.5-1.2,15.6-1,19.7C29.1,119.7,27.9,125.8,28,134.3z"/>
<path class="st1" d="M67.6,41.8c1,2.1,1.9,2.2,2.5,1.5c0,0,0.4,7.2,3.2,10.8c0.1,0.2,0.4,0.4,0.5,0.6c2.7,2.9,5.5,4.5,7.4,5.4
	c-0.6-0.2-1.2-0.4-1.8-0.6c-0.2-0.1-0.3-0.2-0.5-0.2c-0.9-0.5-1.8-1.1-2.8-1.9c-0.3-0.3-0.6-0.5-0.8-0.7c-0.1-0.1-0.2-0.2-0.3-0.3
	c0,0,0,0.1,0.1,0.1c-0.6-0.5-1.1-1-1.7-1.6c-0.1-0.2-0.4-0.4-0.5-0.6c0,0.2,0.5,5,0.5,7.7c0,0.9,0,1.5-0.1,2h25
	C98,63.4,98,62.8,98,61.8c0-2.9,0.4-7.7,0.4-7.7h-0.1c1.5-2.2,2.7-6.2,3.2-10.8c0,0,1.4,1,2.7-2c2.7-6.1,3.5-8.1,3.2-10.4
	c-0.2-2.2-2.2-2.2-2.2-2.2S112.5,3.3,87.1,1c-11.4-0.5-25.3,7.5-21,27.7c0,0-3.1,0.1-2.1,4.3C64.9,37.2,66.6,39.7,67.6,41.8z"/>
<path class="st1" d="M164.7,232.4c-2.5-5-5.9-6.4-8.7-9c0,0,0,0,0-0.1c-0.1-0.1-0.2-0.3-0.3-0.4c-0.1-0.1-0.2-0.4-0.4-0.5
	c0,0,0,0-0.1-0.1c-0.1-0.1-0.2-0.2-0.4-0.4l0.2,0.2c-2-3.7-2.9-12.8-3.8-29.2c-1.1-18.5-1.9-22.9-5.2-32.5
	c-3.3-9.9-3.2-12.8-3.2-19.8c1-11.8-1-20.1-0.7-24.1c0.2-4.1,2-7.3-1-19.7c-4.1-15-10.8-16.9-17-19.5c-0.8-0.4-1.7-0.8-2.7-1.2
	l0.8,63.3c0,0,1.9,8.2,3.6,21.1c0,0,0.4,2.5,0.4,2.6c2.6,19.6,4.6,31.6,8.9,42.6c2.5,6.3,5.8,14.4,6.1,17.6l0.4-0.4
	c0.1-0.1,0.4-0.2,0.5-0.4c-0.1,0.1-0.2,0.2-0.4,0.4c-0.2,0.4-0.4,0.7-0.4,1.1v0.2c-0.1,0.1-0.2,0.2-0.2,0.4c0,0.2-0.1,0.1-0.1,0.1
	c-1.5,4.1-0.6,10.5,0.1,15.4c0,0.1,0,0.2,0.1,0.2c0,0.1,0.1,0.2,0.2,0.4c0,0.1,0.1,0.1,0.2,0.2c0.1,0.1,0.1,0.3,0.2,0.3
	c0.1,0.2,0.1,0.4,0.1,0.4s-0.1,0-0.4-0.1c-0.1-0.1-0.2-0.1-0.4-0.2c0,0.2,0.1,0.5,0.1,0.7c1.5,12.1,2.9,17.9,4.6,17.5
	c1.7-0.4,0.6-5.8,0.4-9.2c-0.2-3.3-1-7.6-0.4-7.7c0.6-0.2,0.7,2.2,1.6,7.9c0.9,5.7,3,11,4.2,10.8c1.1-0.2,1.6-1.4,1-5
	c-0.6-3.6-3.3-14.9-2.6-14.9c0.6-0.1,3,8.1,4,13.8c1,5.7,2.2,8.1,3.7,7.6c1.5-0.5,1.4-1.9,0.2-7.1c-1-5.2-3.7-15.4-2.6-15.6
	c1-0.2,3.3,12.9,4.2,16.1c0.9,3.3,3.2,5.8,3.6,2.5c0.4-3.3-2.6-17.2-3-20.3c-0.5-3,1.7-1.7,3.6,0.9c1.7,2.6,5.3,3.8,6.2,2.6
	C171.4,240.1,167.2,237.4,164.7,232.4z"/>
<path class="st1" d="M1,242c0.9,1.2,4.5,0,6.2-2.6c1.9-2.6,4.1-3.9,3.6-0.9c-0.4,3.1-3.4,17-3,20.3c0.4,3.3,2.7,0.8,3.6-2.5
	c0.9-3.2,3.2-16.3,4.2-16.1c1.1,0.2-1.6,10.4-2.6,15.6c-1.2,5.2-1.3,6.6,0.2,7.1c1.5,0.5,2.7-1.9,3.7-7.6c1-5.7,3.4-13.9,4-13.8
	c0.7,0-2,11.3-2.6,14.9c-0.6,3.6-0.1,4.8,1,5c1.2,0.2,3.3-5.1,4.2-10.8c0.9-5.7,1-8.1,1.6-7.9c0.6,0.1-0.2,4.4-0.4,7.7
	c-0.2,3.4-1.3,8.8,0.4,9.2c1.7,0.4,3.1-5.4,4.6-17.5c0-0.2,0.1-0.5,0.1-0.7c-0.2,0.1-0.3,0.1-0.4,0.2c-0.3,0.1-0.4,0.1-0.4,0.1
	s0-0.2,0.1-0.4c0.1,0,0.1-0.2,0.2-0.3c0.1-0.1,0.2-0.1,0.2-0.2c0.1-0.2,0.2-0.3,0.2-0.4c0.1,0,0.1-0.1,0.1-0.2
	c0.7-4.9,1.6-11.3,0.1-15.4c0,0-0.1,0.1-0.1-0.1c0-0.2-0.1-0.3-0.2-0.4V224c0-0.4-0.2-0.7-0.4-1.1c-0.2-0.2-0.3-0.3-0.4-0.4
	c0.1,0.2,0.4,0.3,0.5,0.4l0.4,0.4c0.3-3.2,3.6-11.3,6.1-17.6c4.2-11,6.2-23,8.9-42.6c0-0.1,0.4-2.6,0.4-2.6
	c1.7-12.9,3.6-21.1,3.6-21.1L49.7,76c-1,0.4-1.9,0.8-2.7,1.2c-6.2,2.6-12.9,4.5-17,19.5c-3,12.4-1.2,15.6-1,19.7
	c0.3,3.9-1.7,12.2-0.7,24.1c0,7,0.1,9.9-3.2,19.8c-3.3,9.6-4.1,13.9-5.2,32.5C18.9,209.2,18,218.3,16,222l0.2-0.2
	c-0.2,0.2-0.3,0.3-0.4,0.4c-0.1,0.1-0.1,0.1-0.1,0.1c-0.2,0.1-0.3,0.4-0.4,0.5c-0.1,0.1-0.2,0.3-0.3,0.4c0,0.1,0,0.1,0,0.1
	c-2.7,2.6-6.1,4-8.7,9C3.8,237.4-0.4,240.1,1,242z"/>
</svg>
