<svg width="64" height="72" viewBox="0 0 64 72" fill="none" xmlns="http://www.w3.org/2000/svg">
<path d="M26.6999 7.6L33.2999 13.9L17.4999 60.3L7.4999 64.3L6.9999 64.5L26.6999 7.6ZM24.9999 0.5L0.399902 71.5L9.0999 68L20.7999 63.3L37.9999 12.8L24.9999 0.5Z" fill="#E46399"/>
<path d="M57.6999 27.2L41.7999 14.2C45.4999 17.2 49.4999 22.9 43.6999 27.2C43.4999 27.3 43.2999 27.5 43.0999 27.6C42.9999 27.7 42.8999 27.7 42.7999 27.8C41.0999 29.1 39.6999 30.9 38.8999 33.1C36.2999 39.6 39.4999 46.9 45.9999 49.5C47.4999 50.1 49.0999 50.4 50.6999 50.4C55.6999 50.4 60.4999 47.4 62.3999 42.4C64.5999 36.8 62.4999 30.5 57.6999 27.2ZM58.6999 41C57.3999 44.3 54.1999 46.4 50.6999 46.4C49.5999 46.4 48.4999 46.2 47.4999 45.8C45.3999 44.9 43.6999 43.3 42.7999 41.2C41.8999 39.1 41.8999 36.7 42.6999 34.6C43.2999 33.2 44.1999 31.9 45.3999 31L45.4999 30.9L45.5999 30.8C45.6999 30.7 45.8999 30.6 45.9999 30.5L46.0999 30.4L46.1999 30.3C46.5999 30 46.9999 29.7 47.3999 29.3L47.5999 29.1C48.5999 28.1 49.2999 27 49.7999 26L55.0999 30.4L55.2999 30.5L55.4999 30.6C58.8999 32.8 60.1999 37.2 58.6999 41Z" fill="#E46399"/>
</svg>
