<svg width="278" height="313" viewBox="0 0 278 313" fill="none" xmlns="http://www.w3.org/2000/svg">
<g clip-path="url(#clip0)">
<path d="M46.8647 275.161L27.9658 282.729L114.882 31.5437L153.811 68.5201L89.2207 258.061L46.8838 275.153L46.8647 275.161Z" stroke="#E46399" stroke-width="14.6153" stroke-linecap="round" stroke-linejoin="round"/>
<mask id="path-2-inside-1" fill="white">
<path fill-rule="evenodd" clip-rule="evenodd" d="M238.905 122.876L177.027 71.9383C191.436 83.7996 207.197 105.796 184.545 122.597C183.747 123.118 182.964 123.663 182.195 124.23C181.837 124.464 181.471 124.696 181.097 124.928C181.071 124.944 181.081 124.984 181.112 124.985C181.14 124.986 181.152 125.023 181.129 125.041C174.482 130.238 169.082 137.214 165.739 145.62C155.685 170.898 168.027 199.541 193.305 209.594C218.583 219.648 247.225 207.306 257.279 182.028C266.024 160.04 257.824 135.507 238.905 122.876Z"/>
</mask>
<path d="M186.316 60.6545C180.084 55.5244 170.873 56.4175 165.743 62.6494C160.613 68.8813 161.506 78.092 167.738 83.2221L186.316 60.6545ZM238.905 122.876L229.616 134.16C229.992 134.47 230.384 134.761 230.79 135.032L238.905 122.876ZM184.545 122.597L192.535 134.836C192.779 134.676 193.018 134.51 193.252 134.336L184.545 122.597ZM182.195 124.23L190.18 136.472C190.418 136.316 190.652 136.154 190.881 135.985L182.195 124.23ZM165.739 145.62L179.319 151.022V151.022L165.739 145.62ZM193.305 209.594L187.903 223.175L193.305 209.594ZM257.279 182.028L243.698 176.627L257.279 182.028ZM181.129 125.041L190.131 136.555L181.129 125.041ZM181.097 124.928L188.779 137.361L181.097 124.928ZM167.738 83.2221L229.616 134.16L248.194 111.593L186.316 60.6545L167.738 83.2221ZM193.252 134.336C200.826 128.719 206.263 121.833 208.867 113.736C211.468 105.646 210.785 97.7677 208.602 90.9556C204.445 77.9825 194.422 67.3279 186.316 60.6545L167.738 83.2221C174.04 88.41 179.102 94.6843 180.765 99.8749C181.493 102.145 181.403 103.657 181.04 104.787C180.678 105.91 179.591 108.075 175.839 110.858L193.252 134.336ZM176.556 110.359C175.522 111.034 174.506 111.74 173.51 112.476L190.881 135.985C191.421 135.586 191.973 135.203 192.535 134.836L176.556 110.359ZM188.779 137.361C189.253 137.068 189.72 136.772 190.18 136.472L174.21 111.989C173.954 112.156 173.689 112.325 173.414 112.494L188.779 137.361ZM172.128 113.526C163.494 120.276 156.485 129.34 152.158 140.219L179.319 151.022C181.68 145.087 185.469 140.2 190.131 136.555L172.128 113.526ZM152.158 140.219C139.121 172.998 155.125 210.138 187.903 223.175L198.706 196.014C180.928 188.943 172.249 168.799 179.319 151.022L152.158 140.219ZM187.903 223.175C220.682 236.212 257.823 220.208 270.859 187.429L243.698 176.627C236.627 194.404 216.484 203.084 198.706 196.014L187.903 223.175ZM270.859 187.429C282.206 158.901 271.556 127.102 247.02 110.721L230.79 135.032C244.091 143.912 249.842 161.179 243.698 176.627L270.859 187.429ZM180.45 139.586C166.93 138.973 161.458 121.868 172.128 113.526L190.131 136.555C200.847 128.178 195.351 111 181.773 110.385L180.45 139.586ZM173.414 112.494C161.19 120.048 166.014 138.932 180.45 139.586L181.773 110.385C196.148 111.036 200.951 129.84 188.779 137.361L173.414 112.494Z" fill="#E46399" mask="url(#path-2-inside-1)"/>
</g>
<defs>
<clipPath id="clip0">
<rect width="246.347" height="277.14" fill="white" transform="translate(16 18)"/>
</clipPath>
</defs>
</svg>
